<?xml version="1.0" standalone="no"?>
<!DOCTYPE svg PUBLIC "-//W3C//DTD SVG 20010904//EN"
 "http://www.w3.org/TR/2001/REC-SVG-20010904/DTD/svg10.dtd">
<svg version="1.0" xmlns="http://www.w3.org/2000/svg"
 width="5008.000000pt" height="2318.000000pt" viewBox="0 0 5008.000000 2318.000000"
 preserveAspectRatio="xMidYMid meet">

<g transform="translate(0.000000,2318.000000) scale(0.100000,-0.100000)"
fill="#000022" stroke="none">
<path d="M15105 22845 c-28 -10 -351 -39 -790 -70 -698 -50 -1239 -98 -1360
-122 -28 -5 -29 -6 -8 -14 59 -22 470 -38 671 -27 43 2 59 -14 46 -49 -24 -70
-148 -89 -459 -73 -206 10 -332 5 -365 -15 -19 -12 -10 -41 25 -75 80 -78 20
-107 -180 -87 l-80 8 49 -28 c63 -36 78 -59 51 -79 -38 -28 -93 -36 -300 -44
-115 -4 -211 -8 -212 -9 -13 -6 4 -25 40 -43 40 -22 53 -23 257 -24 236 0 258
-4 351 -60 l57 -34 203 100 c112 55 233 107 269 116 36 9 148 55 250 104 209
99 256 116 355 125 154 14 428 85 656 170 98 36 493 216 508 231 5 5 -20 4
-34 -1z"/>
<path d="M18215 22809 c-87 -18 -125 -20 -285 -15 -200 5 -340 -4 -550 -35
-653 -97 -593 -92 -1310 -94 -730 -1 -674 7 -1038 -139 -347 -139 -508 -178
-882 -217 -63 -7 -121 -18 -128 -24 -8 -7 -16 -39 -19 -71 -4 -50 -2 -63 16
-86 39 -49 96 -58 423 -69 383 -11 404 -16 497 -109 108 -108 201 -280 210
-388 l6 -66 60 -40 c82 -56 119 -128 119 -230 1 -50 -5 -82 -18 -110 -21 -41
-116 -123 -234 -199 -96 -63 -159 -122 -192 -181 -36 -63 -39 -115 -8 -198
l21 -60 -27 -95 c-21 -73 -26 -106 -21 -142 22 -156 165 -300 405 -408 62 -28
109 -43 135 -43 102 1 198 85 388 340 190 255 284 341 448 407 59 24 117 39
367 97 158 36 244 74 374 162 131 90 248 148 339 168 35 8 136 19 224 26 243
17 625 86 738 133 42 18 46 35 16 63 -19 17 -38 19 -163 19 -135 0 -186 9
-186 34 0 14 34 38 73 51 49 15 53 28 26 74 -28 48 -20 66 31 66 53 0 117 -26
219 -88 103 -63 134 -70 212 -47 33 10 62 22 64 26 6 8 -146 117 -260 185
-101 61 -125 81 -125 105 0 23 14 26 134 39 110 11 236 50 348 106 108 54 155
91 187 148 16 28 60 85 98 126 38 41 77 86 86 100 19 27 22 72 7 100 -39 73
103 212 279 275 22 7 91 23 153 34 129 23 215 50 259 82 52 37 25 42 -129 29
-76 -7 -181 -11 -233 -8 -85 4 -105 9 -201 51 -194 83 -413 126 -683 132 -143
4 -186 1 -270 -16z"/>
<path d="M12223 22590 c-115 -30 -283 -114 -283 -141 0 -30 193 -73 295 -67
60 4 85 12 154 49 45 24 96 56 114 70 39 33 32 52 -33 86 -54 29 -144 30 -247
3z"/>
<path d="M29933 22501 c-80 -37 -106 -87 -57 -109 44 -21 199 -41 513 -67 327
-27 432 -40 462 -55 13 -8 19 -24 21 -62 4 -63 25 -74 67 -34 31 30 102 46
200 46 65 0 136 -12 149 -25 19 -19 -110 -141 -202 -191 -48 -27 -51 -27 -275
-29 -168 -2 -261 -8 -361 -23 -236 -36 -358 -65 -367 -88 -3 -8 6 -32 21 -54
55 -83 24 -106 -168 -121 -201 -16 -239 -29 -395 -132 -75 -50 -170 -106 -211
-126 -73 -35 -78 -36 -195 -36 l-120 0 1 -41 c1 -83 54 -144 214 -248 92 -60
125 -115 125 -211 0 -63 -4 -77 -29 -114 -58 -83 -206 -156 -269 -132 -39 15
-35 47 15 117 22 32 47 74 55 92 13 31 12 38 -10 85 -27 59 -155 238 -293 408
-119 148 -181 194 -262 193 -127 0 -252 -73 -267 -155 -17 -89 66 -189 226
-274 121 -65 154 -94 145 -128 -7 -30 -69 -67 -112 -67 -15 0 -50 11 -78 24
-174 82 -1063 283 -1098 248 -32 -32 89 -78 173 -67 44 6 54 4 74 -15 14 -13
29 -38 36 -57 9 -29 8 -37 -6 -53 -14 -16 -27 -18 -88 -13 -49 3 -131 -4 -252
-21 -228 -33 -257 -33 -319 0 -45 24 -57 26 -130 22 -104 -6 -195 -37 -408
-140 -192 -92 -224 -99 -287 -66 -38 20 -54 39 -81 98 -11 24 -51 39 -110 42
-50 3 -55 1 -58 -19 -2 -12 11 -56 27 -98 17 -42 29 -81 25 -86 -10 -18 -60
-36 -197 -74 -162 -44 -187 -60 -187 -116 0 -93 -105 -121 -255 -68 -56 19
-105 25 -105 12 0 -5 34 -29 75 -55 42 -27 75 -54 75 -63 0 -10 -22 -26 -56
-42 -47 -21 -66 -25 -113 -20 -131 12 -262 93 -343 211 -65 95 -82 112 -161
158 -79 46 -90 63 -58 90 36 28 119 23 349 -24 313 -64 485 -58 567 18 44 41
32 63 -62 110 -96 48 -304 119 -483 165 -94 24 -158 33 -260 38 l-135 7 -125
66 c-227 120 -337 143 -680 143 -345 -1 -352 -2 -790 -170 -205 -78 -287 -119
-296 -148 -4 -12 -73 -89 -153 -171 -81 -83 -165 -178 -188 -211 -103 -152
-393 -359 -594 -424 -123 -40 -257 -140 -294 -218 -15 -31 -15 -39 4 -115 12
-45 21 -96 21 -112 0 -89 106 -213 207 -242 53 -15 58 -15 122 5 36 12 107 47
158 77 50 29 96 54 102 54 15 0 128 -137 166 -202 19 -31 45 -90 60 -130 33
-92 54 -125 111 -178 40 -37 50 -42 80 -37 51 8 164 79 217 136 30 32 64 85
92 147 54 116 103 185 159 223 22 16 60 47 84 70 36 35 43 48 40 74 -3 28 -11
36 -58 60 -99 51 -170 138 -170 209 1 80 80 184 191 248 97 57 159 109 299
250 169 170 223 192 292 118 56 -60 35 -124 -107 -332 -101 -150 -125 -199
-127 -259 -1 -87 62 -151 207 -208 96 -38 161 -41 285 -13 125 28 369 27 424
-1 22 -11 44 -28 50 -38 16 -26 -28 -61 -112 -88 -58 -19 -97 -23 -293 -28
-204 -5 -229 -8 -248 -25 -32 -29 -26 -48 34 -115 87 -98 91 -117 34 -166 -37
-31 -75 -32 -154 -5 -63 22 -126 26 -155 10 -31 -17 -41 -66 -34 -175 7 -113
1 -136 -58 -192 -42 -39 -125 -88 -177 -104 -35 -10 -49 -9 -104 10 -94 31
-133 27 -297 -30 -174 -60 -211 -63 -309 -20 -81 36 -122 38 -209 11 -81 -25
-123 -25 -156 1 -31 24 -111 134 -120 167 -11 33 18 28 44 -8 25 -35 45 -38
60 -10 13 25 39 25 79 3 28 -16 33 -17 58 -3 40 22 68 83 57 122 -16 54 -33
56 -126 13 -101 -46 -172 -57 -180 -28 -5 18 13 179 28 246 l6 29 -73 -50
c-114 -77 -149 -123 -149 -193 0 -58 32 -169 56 -198 13 -16 24 -38 24 -49 0
-58 -117 -131 -250 -157 -111 -21 -188 -60 -280 -139 -162 -141 -237 -198
-315 -238 -62 -32 -101 -63 -175 -138 -116 -118 -190 -160 -282 -160 -48 0
-72 -7 -138 -40 -88 -44 -180 -70 -253 -70 -56 0 -117 -23 -117 -44 0 -25 55
-62 149 -101 110 -46 161 -87 192 -157 21 -48 24 -67 24 -193 0 -121 -3 -150
-24 -213 -31 -96 -60 -126 -136 -142 -82 -17 -292 -7 -530 25 -200 27 -243 26
-307 -6 -65 -33 -71 -51 -73 -222 -1 -122 -7 -176 -28 -272 -60 -277 -58 -460
6 -513 8 -7 56 -21 104 -31 114 -24 161 -48 252 -132 41 -38 80 -69 87 -69 7
0 24 20 39 45 39 67 59 76 190 86 201 15 265 41 391 161 90 86 112 120 129
203 15 71 90 224 131 268 14 16 36 32 49 37 12 5 61 38 108 74 94 72 152 106
179 106 29 0 40 33 28 86 -13 59 8 109 60 139 32 18 49 20 200 17 202 -3 242
7 417 109 101 59 125 69 165 69 60 0 102 -34 160 -132 68 -115 230 -288 340
-365 22 -15 62 -30 94 -35 81 -12 166 -60 237 -131 106 -106 143 -214 119
-344 l-9 -52 51 45 c64 58 96 102 96 131 0 12 -9 46 -21 74 -26 67 -22 100 13
117 23 11 43 10 124 -3 52 -9 98 -14 102 -11 12 12 -34 45 -161 115 -203 111
-350 224 -555 425 -116 113 -192 212 -192 247 0 13 8 34 18 46 22 27 81 63
105 63 10 0 43 -26 75 -58 41 -42 88 -73 170 -116 76 -40 132 -77 170 -114 73
-70 115 -96 215 -134 101 -39 147 -67 205 -126 64 -66 101 -151 112 -255 10
-103 26 -143 81 -202 52 -57 129 -97 228 -119 41 -9 82 -21 93 -27 43 -23 9
-61 -72 -81 -65 -16 -66 -23 -17 -107 43 -73 99 -131 126 -131 30 0 67 39 96
103 37 78 33 106 -35 247 -79 166 -80 172 -41 211 29 29 35 31 93 27 59 -3 62
-2 78 27 9 16 32 39 51 50 36 21 28 21 294 13 101 -3 271 20 312 41 8 4 -13
26 -58 59 -38 29 -74 65 -80 79 -18 49 29 229 101 379 109 226 297 424 403
424 18 0 41 -14 69 -41 23 -22 60 -50 83 -61 66 -34 68 -36 44 -78 -12 -20
-19 -45 -17 -56 4 -25 96 -93 136 -100 39 -8 91 11 181 63 73 43 87 63 44 63
-36 0 -102 31 -126 58 -34 38 -15 58 116 121 145 70 295 130 342 138 48 8 52
-11 20 -91 -14 -36 -27 -90 -29 -118 -1 -38 -12 -73 -39 -126 -20 -39 -37 -74
-37 -76 0 -2 62 -39 138 -82 376 -213 502 -316 502 -410 0 -41 -53 -120 -105
-156 -59 -41 -154 -62 -245 -55 -100 8 -193 36 -327 96 -169 76 -252 96 -408
96 l-130 0 -79 -38 c-107 -53 -143 -64 -236 -77 -105 -14 -153 -36 -236 -106
-80 -68 -120 -84 -190 -77 -67 7 -115 -2 -142 -27 -27 -25 -21 -41 28 -75 58
-40 87 -90 100 -169 22 -141 96 -244 205 -284 111 -41 233 -50 253 -17 32 55
157 42 288 -31 83 -46 122 -45 260 7 123 47 227 61 270 38 26 -14 64 -75 64
-104 0 -9 -7 -18 -15 -21 -25 -10 -36 -68 -45 -250 -9 -186 -12 -202 -42 -244
-9 -14 -25 -59 -33 -100 -22 -105 -58 -175 -108 -208 -57 -38 -168 -43 -287
-12 -96 25 -202 29 -270 9 -56 -16 -247 -16 -355 0 -227 35 -460 101 -640 184
-194 88 -295 114 -376 96 -85 -19 -119 -75 -119 -197 0 -70 -3 -82 -28 -116
-15 -20 -48 -53 -72 -72 -54 -43 -70 -42 -186 10 -45 20 -132 49 -193 65 -122
31 -178 62 -213 119 -71 115 -139 152 -388 208 -63 14 -137 37 -164 52 -73 40
-162 125 -181 175 -15 40 -15 46 5 106 25 80 25 121 -1 165 -17 29 -19 44 -13
94 6 53 4 61 -17 80 -44 42 -140 41 -264 -2 -119 -41 -172 -46 -510 -43 -275
1 -330 -1 -393 -16 -132 -31 -224 -66 -422 -162 -113 -55 -217 -99 -249 -105
-96 -18 -267 21 -373 86 -89 54 -99 50 -180 -68 -67 -98 -132 -162 -253 -246
-192 -135 -290 -285 -310 -474 -5 -50 -15 -80 -38 -115 -75 -119 -220 -255
-291 -274 -51 -14 -170 -128 -270 -259 -99 -130 -122 -166 -205 -315 -40 -71
-111 -188 -158 -258 -103 -157 -138 -229 -153 -315 -12 -74 -9 -89 49 -253 89
-250 50 -542 -98 -739 -23 -30 -41 -65 -41 -78 0 -12 23 -66 50 -118 54 -103
59 -121 33 -139 -14 -11 -13 -14 15 -35 37 -28 33 -40 -13 -40 -18 0 -41 -7
-49 -16 -24 -24 -3 -52 60 -80 30 -13 54 -27 54 -31 0 -5 -9 -14 -20 -21 -31
-19 -24 -38 24 -56 54 -21 162 -129 262 -262 64 -86 102 -154 198 -354 73
-153 367 -425 571 -528 153 -77 259 -80 520 -12 202 51 279 59 375 35 141 -35
248 -11 730 160 250 89 293 94 401 50 133 -53 207 -120 229 -205 18 -72 31
-99 50 -105 10 -3 58 -1 107 6 229 30 367 -28 439 -186 58 -126 54 -292 -12
-555 -65 -257 -46 -321 158 -537 173 -184 196 -220 273 -448 26 -77 72 -192
103 -255 l57 -115 -2 -100 c-3 -125 6 -176 59 -342 l42 -133 -106 -217 c-166
-340 -212 -486 -212 -668 0 -140 16 -189 164 -495 191 -396 272 -674 320
-1105 6 -55 23 -134 37 -175 24 -72 39 -99 185 -311 36 -52 75 -121 86 -152
12 -31 40 -87 63 -124 103 -167 111 -193 97 -318 -13 -105 3 -146 92 -236 63
-65 70 -69 111 -69 24 0 116 17 204 39 222 53 275 58 405 31 68 -15 120 -20
150 -16 77 10 253 106 376 205 208 168 472 446 593 624 51 75 111 142 175 192
44 34 45 44 31 211 -13 168 23 237 160 300 194 90 280 183 292 315 7 74 -7
127 -68 261 -70 154 -70 150 -8 233 28 39 78 99 109 135 74 84 159 197 170
226 11 29 64 64 230 154 145 78 206 119 257 172 50 52 130 194 149 265 17 63
17 67 -6 196 -17 94 -24 173 -25 277 -1 161 -4 170 -98 370 -89 190 -122 324
-120 495 1 262 92 448 374 770 72 83 173 202 224 266 102 127 208 227 446 421
167 137 218 190 294 307 110 171 460 854 495 969 24 77 25 120 5 232 -8 47
-15 86 -15 88 0 1 -30 -13 -67 -31 -112 -56 -297 -110 -592 -172 -187 -39
-253 -42 -325 -15 -76 29 -147 97 -171 165 -34 98 -49 131 -100 210 -66 103
-170 213 -315 335 -120 101 -201 184 -225 230 -7 14 -23 55 -35 90 -27 81 -75
163 -155 265 -132 170 -185 278 -185 384 0 82 -39 191 -95 266 -39 53 -130
215 -250 445 -65 124 -172 319 -238 433 -112 196 -176 335 -162 357 19 31 77
-20 199 -173 43 -54 79 -97 81 -95 1 2 10 39 19 83 33 160 71 141 152 -77 19
-51 55 -128 81 -171 49 -83 228 -328 357 -487 88 -108 147 -222 201 -383 57
-173 96 -236 249 -406 41 -47 88 -110 103 -140 16 -30 57 -91 92 -136 76 -96
116 -175 135 -270 8 -38 22 -108 31 -153 33 -166 101 -332 154 -374 22 -17 35
-19 81 -14 105 10 377 115 741 286 252 118 288 140 378 239 42 46 103 101 135
123 62 40 167 78 216 78 40 0 140 71 239 170 103 103 161 178 243 316 34 57
93 138 132 181 91 100 116 135 116 164 0 45 -179 198 -353 301 -97 57 -168
126 -186 179 -6 20 -10 62 -9 95 5 91 -14 86 -135 -38 -174 -178 -229 -214
-314 -205 -66 7 -157 48 -200 90 -27 25 -33 39 -33 71 0 45 -31 106 -54 106
-8 0 -29 -18 -47 -39 -83 -104 -156 -65 -214 113 -33 100 -68 169 -150 291
-82 122 -95 153 -95 219 0 55 33 140 65 166 27 22 93 18 148 -10 64 -32 147
-122 187 -201 73 -145 127 -193 328 -293 185 -93 210 -95 413 -47 65 16 94 19
113 11 14 -5 70 -54 124 -108 115 -117 163 -148 257 -163 107 -16 782 -24 880
-9 44 7 103 14 130 17 105 10 234 -70 280 -173 19 -43 31 -56 67 -72 23 -11
79 -47 123 -81 81 -62 158 -97 189 -85 21 8 66 -22 66 -44 0 -26 -37 -57 -90
-78 -25 -9 -49 -20 -53 -24 -13 -11 133 -141 188 -166 58 -28 132 -31 175 -9
34 18 55 53 65 110 10 53 21 72 46 80 32 10 67 -30 90 -104 17 -58 19 -82 13
-211 -5 -137 -4 -150 21 -235 50 -172 136 -377 385 -920 179 -390 227 -509
266 -652 22 -83 67 -135 139 -162 66 -25 87 -19 135 35 51 58 136 193 161 255
67 167 90 325 88 583 -2 262 -3 252 21 292 12 19 73 77 135 128 108 91 154
138 248 256 40 52 56 64 139 115 18 11 52 49 75 85 51 78 95 117 190 170 96
53 113 76 107 143 -10 105 56 150 301 207 77 18 169 43 205 57 42 16 76 22 95
18 45 -8 106 -76 165 -185 58 -107 102 -158 175 -199 86 -49 174 -163 251
-325 50 -105 67 -171 58 -224 -4 -24 0 -51 9 -73 21 -52 75 -109 102 -109 22
0 114 64 130 91 14 22 99 69 125 69 54 0 92 -59 135 -210 28 -101 86 -253 156
-410 52 -117 59 -191 34 -360 -9 -63 -19 -175 -22 -249 -7 -164 -3 -175 109
-262 157 -121 178 -153 242 -365 83 -275 156 -416 275 -531 81 -79 220 -165
269 -167 36 -1 37 0 35 34 -4 67 -125 456 -170 544 -32 63 -100 134 -237 250
-136 114 -208 199 -241 287 -14 37 -53 109 -85 160 -55 85 -60 97 -60 148 0
31 9 99 21 151 12 57 22 153 26 240 5 146 16 190 47 190 32 0 160 -76 256
-153 126 -101 214 -186 295 -287 69 -85 87 -92 155 -61 55 24 75 16 91 -39 10
-32 9 -55 -1 -110 -14 -76 -5 -120 25 -120 53 0 161 84 196 151 24 48 72 87
171 140 92 50 147 101 177 164 58 124 27 315 -90 548 -81 162 -157 263 -295
393 -243 228 -298 349 -226 496 40 81 106 143 203 192 179 90 286 64 346 -84
15 -38 30 -70 33 -70 3 0 30 32 60 71 96 123 189 182 318 201 109 16 240 49
346 85 313 108 438 245 560 613 68 203 126 441 127 517 1 77 -9 92 -72 100
-111 12 -134 47 -70 102 23 20 41 45 41 56 0 34 -38 84 -87 117 -84 57 -187
168 -233 252 -59 107 -112 171 -175 212 -65 41 -79 64 -70 113 20 108 88 190
248 296 57 38 83 61 75 66 -21 11 -258 69 -281 69 -21 0 -39 -10 -101 -54 -24
-17 -32 -18 -69 -7 -109 33 -357 209 -357 254 0 9 26 35 58 59 31 23 109 92
172 154 136 132 148 139 195 124 48 -16 81 -59 89 -117 9 -67 56 -157 83 -161
13 -2 60 19 115 52 125 74 130 75 214 31 109 -57 146 -100 157 -183 7 -59 36
-87 116 -113 169 -56 239 -143 382 -474 23 -55 44 -102 45 -104 4 -5 296 148
312 163 11 11 9 25 -11 85 -50 143 -126 226 -365 400 -79 57 -166 124 -194
150 l-51 47 24 27 c13 14 51 41 84 60 63 34 105 84 105 123 0 13 -10 43 -21
68 -22 43 -22 45 -5 97 21 63 116 239 133 246 6 2 44 -7 83 -21 89 -32 143
-33 192 -3 139 84 240 395 241 737 1 161 -10 241 -45 349 -18 55 -31 74 -103
145 -54 54 -98 109 -131 166 -94 161 -314 352 -441 380 -19 5 -57 2 -95 -7
-126 -30 -286 -1 -441 80 -115 59 -117 64 -63 173 25 49 57 132 71 184 63 221
145 334 269 372 17 5 141 13 276 18 135 6 281 15 325 22 132 21 198 16 305
-22 120 -42 236 -51 290 -23 l35 18 1 115 c1 120 22 210 60 251 41 45 261 2
421 -82 61 -32 113 -37 137 -13 18 18 19 22 16 91 -2 62 9 86 49 103 70 29
146 -24 206 -144 34 -67 32 -112 -9 -215 -19 -47 -39 -120 -45 -162 -6 -44
-25 -111 -46 -160 -19 -46 -35 -98 -35 -115 0 -85 264 -407 472 -576 54 -43
149 -131 210 -194 62 -63 127 -124 144 -134 67 -42 173 -10 160 49 -3 14 -15
71 -26 126 -11 55 -29 132 -39 170 -21 82 -15 107 27 124 17 7 33 19 36 27 3
8 -12 47 -32 87 -21 39 -55 112 -77 160 -46 105 -84 143 -210 213 -156 86
-278 225 -260 297 9 36 40 53 173 97 65 21 156 54 204 74 48 20 99 36 114 36
14 0 61 -16 104 -35 43 -19 87 -35 100 -35 30 0 138 105 161 157 33 77 186
143 330 143 77 0 139 16 153 39 11 17 -29 37 -264 131 -417 169 -483 221 -275
220 116 -2 115 -2 115 9 0 5 -16 28 -35 51 -89 106 -17 127 207 59 71 -21 123
-31 168 -31 49 0 74 -5 100 -22 122 -75 314 -118 422 -96 32 7 61 16 63 20 3
5 -25 35 -63 67 -237 208 -296 234 -447 193 -100 -27 -125 -23 -274 45 -133
60 -238 91 -409 120 -157 27 -301 62 -395 95 -194 69 -673 155 -1112 200 -179
18 -225 19 -225 1 0 -3 13 -22 28 -41 45 -55 55 -79 41 -96 -17 -21 -44 -17
-154 21 -149 53 -246 64 -650 75 -198 5 -391 14 -429 20 -39 6 -114 28 -168
50 -54 21 -124 44 -155 49 -81 15 -292 29 -528 36 -378 11 -540 33 -665 88
-110 49 -247 86 -376 102 -71 8 -199 27 -284 41 -179 29 -370 35 -435 12 -43
-14 -41 -8 -32 -95 1 -21 -6 -32 -38 -54 -22 -16 -60 -35 -84 -44 -49 -17
-164 -20 -226 -5 -153 35 -258 29 -373 -20 -44 -19 -88 -30 -117 -30 -48 0
-100 24 -440 209 -82 45 -178 90 -212 101 -152 47 -387 51 -553 9 -124 -31
-224 -29 -395 10 -152 35 -260 41 -335 21 -78 -22 -183 -16 -311 19 -151 40
-220 41 -387 0 -166 -39 -252 -48 -271 -25 -12 15 -10 21 15 47 16 17 83 63
148 102 66 39 133 83 150 98 l30 26 -30 28 c-112 104 -150 114 -529 130 -170
8 -329 19 -353 25 -24 6 -84 28 -135 49 -58 25 -121 44 -171 50 -65 9 -82 16
-105 39 -43 46 -245 94 -476 111 -129 10 -146 14 -186 44 -19 13 -60 23 -140
32 -70 8 -141 24 -184 40 -38 14 -95 36 -125 47 -81 31 -240 36 -297 9z
m-2075 -4872 c99 -49 192 -164 192 -238 0 -40 -21 -49 -66 -27 -43 20 -89 20
-145 1 -132 -47 -179 -161 -106 -257 31 -41 74 -73 227 -167 40 -24 77 -54 82
-67 13 -28 23 -29 71 -9 61 25 81 20 126 -32 48 -56 101 -152 101 -182 0 -36
-55 -63 -120 -58 -30 2 -62 6 -70 8 -10 3 -14 -2 -12 -16 6 -34 80 -158 132
-218 60 -70 74 -124 68 -260 -4 -91 -6 -99 -33 -127 -17 -17 -65 -49 -109 -71
l-78 -39 -260 132 -261 131 7 71 c3 39 9 121 12 181 11 187 -20 266 -176 445
-104 120 -156 194 -166 236 -11 46 -32 71 -85 104 -87 53 -78 88 58 222 194
191 327 266 479 267 60 1 80 -4 132 -30z"/>
<path d="M23140 22451 c0 -23 -16 -37 -53 -46 -37 -10 -65 -47 -73 -101 -3
-24 -9 -44 -13 -44 -3 0 -15 24 -26 52 -14 36 -31 60 -54 75 -46 31 -49 31
-84 -20 -11 -16 -28 -18 -149 -18 -74 0 -207 5 -294 10 -222 14 -275 0 -246
-63 16 -35 48 -54 160 -92 122 -42 175 -44 214 -7 l27 26 41 -28 c35 -25 46
-27 93 -22 48 6 51 5 32 -9 -34 -27 -81 -43 -142 -49 -111 -11 -123 -15 -123
-35 0 -21 60 -61 204 -135 l97 -50 56 60 c79 87 158 185 181 225 18 33 22 35
70 34 90 -3 153 -63 138 -134 l-5 -30 47 1 c26 0 70 4 97 7 67 10 93 5 100
-19 8 -26 63 -23 79 4 9 16 4 25 -31 57 -27 23 -61 42 -90 49 -81 20 -253 127
-253 157 0 20 33 18 137 -8 129 -32 298 -32 370 1 55 25 89 54 79 69 -11 18
-99 31 -246 37 -177 7 -256 20 -292 46 -34 24 -48 24 -48 0z"/>
<path d="M11671 22039 c-100 -40 -190 -156 -133 -173 19 -6 375 -38 717 -65
226 -18 231 -18 290 1 80 26 238 111 222 119 -52 28 -133 34 -409 31 -317 -3
-324 -2 -461 59 -112 50 -156 55 -226 28z"/>
<path d="M27870 21980 c-30 -5 -149 -19 -265 -30 -366 -38 -458 -63 -580 -160
-72 -57 -116 -108 -138 -161 -8 -19 -38 -56 -67 -81 -38 -34 -51 -51 -46 -64
4 -12 -5 -36 -24 -64 -28 -43 -29 -46 -12 -62 23 -24 215 -95 306 -114 40 -8
102 -14 136 -12 l63 3 -53 40 c-74 56 -95 87 -94 140 1 61 52 141 140 224 117
109 254 165 540 221 265 51 317 71 281 107 -20 20 -106 26 -187 13z"/>
<path d="M8130 21769 c-98 -25 -233 -87 -402 -182 -210 -119 -227 -139 -164
-195 55 -48 79 -49 197 -1 295 118 611 219 819 261 85 17 158 34 162 38 9 7
-174 63 -277 85 -98 21 -243 18 -335 -6z"/>
<path d="M10583 21725 c-103 -28 -209 -75 -257 -115 -54 -45 -81 -49 -207 -29
-39 6 -72 9 -75 7 -2 -3 23 -20 56 -38 63 -35 105 -73 124 -112 24 -48 136
-28 265 47 78 46 138 106 167 168 42 91 32 100 -73 72z"/>
<path d="M11033 21711 c-89 -22 -201 -77 -226 -111 -38 -54 9 -83 90 -56 26 9
110 29 187 46 144 31 202 53 220 83 30 51 -128 73 -271 38z"/>
<path d="M11776 21690 c-145 -31 -317 -123 -434 -234 -93 -88 -105 -134 -42
-166 79 -40 145 -50 330 -48 144 2 196 -2 293 -20 134 -25 160 -22 269 27 83
38 108 38 177 4 87 -45 183 -143 280 -288 79 -119 91 -132 142 -158 31 -15 71
-41 90 -57 33 -29 33 -30 15 -45 -33 -25 -124 -55 -170 -55 -24 0 -63 7 -86
15 -115 41 -269 -15 -321 -116 -30 -59 -50 -63 -217 -48 -111 10 -160 10 -218
1 -121 -19 -162 -51 -112 -86 32 -23 124 -20 221 5 110 29 192 30 237 4 19
-12 58 -52 87 -90 29 -39 72 -87 95 -108 138 -125 348 -208 443 -177 60 20 41
56 -68 129 -26 18 -55 44 -64 58 -16 25 -16 26 6 44 13 11 29 19 37 19 38 0
125 -26 188 -56 97 -47 110 -45 141 16 36 72 34 128 -10 220 -45 92 -43 117
10 148 55 32 105 25 235 -34 119 -54 172 -61 217 -28 37 27 93 110 93 139 0
27 -51 75 -171 161 -102 74 -119 103 -128 220 -8 106 -22 121 -144 164 -146
51 -219 94 -300 177 -67 69 -75 74 -107 70 -19 -2 -58 -14 -86 -27 -70 -31
-99 -24 -235 62 -175 109 -206 121 -299 116 -93 -5 -187 -46 -293 -126 -105
-80 -151 -99 -163 -68 -10 25 26 83 102 166 41 44 74 82 74 85 0 8 -17 5 -114
-15z"/>
<path d="M9555 21611 c-22 -10 -73 -46 -113 -80 -117 -97 -150 -95 -167 10 -8
45 -15 65 -27 67 -9 2 -46 -13 -83 -32 -37 -20 -80 -36 -97 -36 -16 0 -84 15
-151 33 -115 30 -131 32 -287 31 -150 0 -173 -3 -255 -28 -110 -33 -237 -87
-238 -101 0 -5 13 -14 29 -19 77 -25 114 -45 114 -64 0 -23 -45 -47 -110 -57
-64 -11 -34 -20 128 -39 78 -9 152 -24 175 -35 l42 -19 -35 -15 c-46 -20 -140
-33 -325 -47 -82 -7 -151 -13 -152 -14 -5 -4 271 -121 347 -146 102 -34 235
-51 305 -40 28 4 109 31 180 58 177 68 193 70 364 36 139 -28 143 -28 205 -12
66 18 346 138 346 150 0 3 -49 32 -110 63 -60 31 -110 59 -110 62 0 4 27 52
59 107 66 112 84 153 77 173 -8 19 -64 16 -111 -6z"/>
<path d="M10665 21379 c-96 -32 -299 -141 -303 -162 -3 -12 11 -31 38 -54 53
-46 64 -74 46 -118 -19 -44 -72 -78 -182 -116 -108 -38 -149 -58 -233 -115
-35 -24 -73 -44 -85 -44 -11 0 -41 14 -66 31 -112 76 -105 74 -325 74 -194 0
-203 1 -319 33 -138 38 -175 39 -282 11 -152 -39 -262 -109 -350 -223 l-31
-39 -54 99 c-71 130 -73 131 -244 116 -222 -20 -360 -11 -372 25 -2 6 19 28
46 49 28 22 50 42 51 47 0 4 -17 7 -37 7 -48 0 -172 30 -335 80 -179 55 -221
61 -429 58 l-184 -3 -80 35 c-88 38 -133 42 -185 15 -26 -14 -64 -18 -169 -20
-115 -3 -160 -9 -291 -40 -269 -63 -362 -77 -520 -78 -157 0 -226 10 -460 68
-190 47 -317 71 -531 99 -103 14 -292 42 -420 62 -353 56 -538 51 -979 -27
-160 -28 -419 -92 -519 -129 -110 -40 -266 -80 -316 -80 -113 -1 -325 -71
-325 -108 0 -10 31 -53 70 -96 38 -42 70 -80 70 -84 0 -14 -174 -92 -225 -102
-31 -5 -80 -5 -130 2 -146 18 -324 -11 -450 -73 -76 -37 -112 -71 -93 -86 26
-22 156 -55 233 -60 69 -5 93 -1 167 22 137 43 176 17 102 -65 -83 -92 -228
-150 -497 -200 -194 -36 -279 -60 -360 -102 -81 -44 -100 -78 -91 -167 4 -44
2 -81 -5 -104 -16 -47 -74 -98 -160 -141 -38 -20 -72 -40 -76 -46 -10 -16 152
-90 197 -90 20 0 60 9 88 20 60 24 123 26 140 5 19 -23 -8 -56 -79 -100 -71
-43 -347 -176 -476 -230 -184 -76 -273 -117 -291 -131 -17 -14 -12 -15 51 -11
118 8 379 100 701 248 95 44 218 93 271 110 165 51 230 78 463 190 260 125
299 138 355 115 86 -36 243 -12 415 64 162 71 161 71 480 -5 102 -24 224 -51
272 -59 111 -19 134 -29 254 -111 54 -36 146 -90 203 -118 172 -85 193 -120
197 -329 3 -141 12 -184 49 -218 33 -31 32 -37 -9 -44 -70 -13 -133 -128 -123
-224 3 -26 11 -66 18 -89 13 -41 12 -44 -19 -88 -18 -25 -32 -57 -32 -70 0
-18 30 -57 108 -138 131 -136 187 -209 201 -261 5 -21 17 -46 26 -56 15 -17
15 -22 -4 -65 -29 -65 -104 -169 -146 -201 -46 -35 -69 -29 -75 21 -9 70 -83
84 -143 27 -16 -15 -59 -88 -96 -163 -79 -157 -155 -274 -271 -414 -98 -117
-151 -198 -210 -315 -44 -87 -85 -151 -165 -253 -42 -55 -45 -63 -45 -118 0
-35 -8 -80 -20 -111 -29 -78 -26 -118 17 -197 36 -66 37 -69 24 -109 -8 -24
-11 -60 -8 -89 9 -82 74 -369 91 -401 18 -35 51 -60 118 -92 61 -28 122 -91
156 -160 26 -53 27 -61 28 -225 1 -189 -2 -180 85 -366 59 -128 70 -188 44
-238 -23 -46 -22 -103 5 -145 12 -20 54 -63 93 -95 114 -93 112 -90 109 -187
-2 -72 1 -90 22 -133 48 -93 179 -241 215 -241 19 0 12 29 -33 133 -48 112
-77 207 -102 337 -21 111 -71 260 -143 423 -130 295 -140 370 -61 461 39 43
59 45 131 9 69 -36 84 -62 115 -214 31 -149 72 -253 160 -406 87 -152 134
-251 134 -283 0 -30 46 -100 129 -195 129 -147 260 -372 280 -482 9 -47 3
-112 -19 -192 -6 -24 -12 -64 -12 -91 -1 -40 4 -56 35 -98 98 -133 278 -243
858 -525 l306 -149 135 51 c150 56 193 61 260 32 67 -29 162 -105 218 -176 66
-83 151 -146 275 -206 198 -94 309 -116 372 -71 17 12 36 22 43 22 6 0 22 -26
36 -57 51 -119 86 -181 130 -233 48 -57 74 -108 74 -148 0 -73 20 -102 148
-211 178 -151 240 -194 326 -225 42 -15 117 -47 168 -71 134 -66 188 -60 188
20 0 75 77 125 193 125 49 0 75 -6 118 -27 30 -16 55 -36 57 -46 2 -10 -6 -42
-18 -69 l-22 -51 21 -16 c17 -13 30 -52 57 -171 81 -348 40 -497 -235 -853
-149 -193 -239 -348 -267 -458 -26 -101 1 -169 74 -189 81 -22 81 -23 -28
-190 -44 -67 -82 -138 -86 -157 -19 -101 41 -239 140 -327 101 -88 210 -272
286 -481 44 -120 87 -204 156 -306 164 -239 225 -336 287 -456 102 -195 131
-223 366 -352 272 -149 465 -313 588 -499 91 -140 105 -232 104 -692 -3 -655
29 -1105 106 -1510 27 -144 27 -149 28 -570 0 -418 0 -426 22 -463 21 -38 32
-92 53 -255 13 -109 37 -152 156 -282 114 -123 133 -157 132 -231 -1 -47 5
-67 53 -157 52 -99 54 -107 54 -180 0 -101 -25 -144 -102 -178 -76 -34 -70
-54 32 -120 92 -59 134 -117 195 -268 60 -152 168 -348 238 -431 14 -16 45
-43 71 -60 25 -16 60 -50 79 -75 90 -122 78 -113 146 -107 41 4 74 1 101 -8
83 -30 161 -12 228 53 44 43 47 73 15 129 -19 31 -23 52 -22 118 1 82 20 151
89 314 54 128 39 249 -37 289 -50 26 -147 127 -169 177 -23 52 -17 74 40 150
74 100 84 123 91 211 6 76 10 87 44 131 20 26 35 54 34 62 -2 9 -19 20 -38 25
-77 22 -180 164 -180 248 0 70 46 71 193 3 42 -19 82 -35 89 -35 15 0 45 45
65 95 17 44 16 131 -3 166 -8 17 -14 47 -12 67 4 50 31 61 171 72 123 10 193
27 279 71 140 71 198 172 162 282 -44 136 -125 249 -225 312 -62 40 -70 49
-67 73 3 27 4 27 73 26 52 -1 102 -12 198 -43 269 -86 334 -54 521 263 47 78
118 193 159 254 79 117 98 163 117 272 11 60 24 90 94 211 31 54 66 184 66
244 0 23 -9 75 -19 116 -35 135 -33 146 32 210 66 66 202 156 337 224 58 29
125 69 148 88 41 35 117 58 141 43 5 -4 46 -7 89 -7 97 -1 140 18 202 88 88
99 198 378 259 655 62 278 80 488 61 698 -15 171 -8 200 64 279 70 76 121 147
188 261 31 52 95 147 143 210 94 125 156 241 180 335 29 114 12 292 -34 355
-30 42 -79 69 -185 101 -136 42 -240 97 -331 177 -163 143 -173 151 -240 171
-95 29 -332 63 -455 65 -100 1 -108 0 -167 -32 -108 -56 -126 -45 -124 76 l1
66 -49 47 c-28 27 -87 66 -141 93 -141 71 -179 65 -338 -56 -116 -86 -142 -95
-213 -70 -51 17 -77 42 -44 42 42 0 161 95 192 153 13 25 13 31 -2 53 -25 39
-95 84 -129 84 -45 0 -117 -46 -233 -149 -139 -122 -189 -146 -213 -101 -17
31 9 68 146 211 123 129 184 213 184 257 0 13 -9 36 -21 51 -11 16 -42 89 -69
164 -57 162 -110 247 -215 345 -80 74 -175 130 -270 157 -48 14 -80 16 -168
11 -129 -8 -191 5 -317 67 -69 33 -99 56 -160 120 -273 287 -367 363 -575 467
-151 75 -222 94 -324 85 -180 -15 -513 83 -623 183 -58 53 -98 72 -154 72 -64
0 -126 -32 -196 -100 -65 -63 -75 -101 -38 -147 30 -39 25 -74 -20 -134 -52
-70 -68 -78 -91 -50 -39 47 -47 128 -28 253 14 89 42 172 75 220 67 96 -67 67
-191 -42 -64 -57 -124 -89 -166 -90 -44 0 -146 -58 -189 -108 -23 -25 -64 -85
-93 -132 -81 -134 -182 -221 -241 -206 -13 3 -56 30 -97 61 -134 99 -224 108
-400 40 -114 -44 -161 -46 -234 -11 -68 34 -179 150 -224 236 -31 58 -34 72
-33 140 0 41 8 122 17 180 32 209 55 396 55 462 0 59 -3 69 -25 87 -51 39
-233 59 -390 42 -55 -6 -139 -14 -186 -18 -79 -5 -88 -4 -108 16 -11 11 -21
29 -21 39 0 40 37 137 127 337 179 394 212 480 192 517 -29 54 -139 61 -296
19 -112 -31 -150 -65 -194 -173 -57 -144 -171 -236 -364 -294 -127 -38 -286
-40 -363 -5 -69 31 -152 121 -196 214 -37 77 -90 244 -126 397 l-22 95 137
413 136 412 48 48 c27 26 84 68 127 93 138 80 461 249 495 259 57 17 121 11
184 -16 127 -54 250 -95 304 -101 63 -6 67 -3 124 87 33 52 100 97 178 121 86
26 128 21 254 -28 129 -51 180 -63 271 -63 73 0 85 -3 120 -28 45 -33 113
-106 116 -125 0 -6 2 -79 3 -162 1 -132 4 -160 28 -238 15 -49 38 -110 52
-137 23 -46 66 -90 88 -90 22 0 86 81 103 132 24 70 23 172 -6 408 -29 242
-25 324 19 406 77 145 362 374 649 523 140 72 221 135 273 211 50 73 68 134
79 265 11 125 31 204 59 229 24 22 36 16 62 -35 11 -22 24 -37 28 -35 5 3 14
25 20 50 14 56 79 129 179 199 42 30 118 90 169 134 112 97 172 130 343 188
229 79 291 121 325 224 30 92 77 124 374 256 403 178 605 240 672 205 47 -26
10 -62 -131 -128 -122 -57 -172 -95 -168 -126 3 -19 9 -21 58 -21 45 1 81 12
205 67 83 36 190 78 240 93 49 15 112 38 139 52 56 29 188 114 183 119 -2 2
-41 -3 -88 -11 -187 -33 -302 -6 -387 90 -34 39 -72 116 -72 147 0 4 33 44 73
88 82 88 124 157 113 185 -6 16 -17 17 -109 12 -120 -6 -182 -24 -393 -113
-170 -72 -207 -82 -229 -64 -47 39 -1 76 255 204 333 166 363 174 745 186 393
12 503 33 755 142 240 104 388 207 409 285 18 65 -32 136 -115 163 -53 18
-157 6 -234 -26 -58 -24 -67 -25 -89 -13 -13 8 -26 20 -29 27 -2 7 21 37 52
67 31 30 56 58 56 62 0 5 -28 64 -62 132 -67 131 -70 145 -53 263 5 35 2 60
-14 103 -17 46 -20 68 -15 125 6 57 3 79 -16 134 l-23 65 -46 -34 c-111 -84
-261 -181 -364 -237 l-112 -59 -68 71 c-37 40 -70 83 -73 97 -4 16 1 45 14 77
46 113 37 167 -39 228 -137 110 -364 186 -529 176 -143 -8 -220 -64 -300 -220
-50 -94 -120 -182 -188 -231 -27 -20 -55 -49 -61 -64 -6 -16 -10 -74 -8 -138
2 -98 -1 -115 -22 -158 -50 -102 -159 -194 -367 -310 -133 -75 -191 -127 -228
-208 -96 -210 -118 -249 -165 -298 -56 -57 -118 -90 -169 -91 -44 0 -84 42
-125 128 -37 79 -34 104 28 271 25 67 45 137 45 156 0 40 -21 55 -110 75 -76
17 -191 62 -355 138 -156 72 -246 108 -319 128 -77 21 -117 53 -160 132 -21
39 -56 89 -77 112 -45 48 -47 65 -18 123 71 138 388 358 709 492 121 50 190
102 190 142 0 37 32 61 92 66 29 3 104 11 166 17 95 9 375 70 390 85 2 2 -21
32 -52 67 -57 62 -73 95 -62 123 8 22 41 19 124 -12 83 -30 103 -28 221 22 78
33 207 55 321 55 227 0 319 44 487 231 88 98 112 141 94 163 -21 25 -101 46
-175 46 -93 0 -154 -29 -245 -114 -120 -112 -254 -186 -339 -186 -72 0 -80 41
-27 136 19 34 35 69 35 77 0 25 -55 40 -118 33 -44 -5 -62 -3 -81 10 -51 36
-65 127 -31 203 48 105 2 150 -115 110z m-1608 -3465 c75 -44 113 -121 110
-228 -2 -73 13 -103 73 -143 40 -28 85 -29 151 -6 42 15 55 16 96 5 88 -24
153 -98 153 -175 0 -83 -52 -126 -132 -110 -69 14 -86 7 -113 -46 -39 -77
-116 -131 -187 -131 -36 0 -73 20 -131 71 l-38 34 71 94 c47 61 70 101 68 115
-3 19 -9 21 -78 21 -65 -1 -83 -5 -136 -34 -119 -63 -224 -181 -304 -341 -77
-153 -174 -260 -236 -260 -9 0 -32 17 -50 37 -57 62 -44 109 84 317 107 175
197 273 296 323 27 14 95 36 150 50 105 26 156 47 156 64 0 19 -49 28 -118 22
-80 -7 -135 5 -234 48 -36 16 -79 29 -93 29 -15 0 -64 -16 -108 -36 -111 -50
-148 -53 -247 -18 -44 16 -80 31 -80 34 1 10 160 122 190 133 25 9 30 17 27
34 -6 32 8 39 83 46 36 4 112 18 170 33 243 60 328 64 407 18z m980 -719 l28
-25 -35 -30 c-48 -42 -107 -69 -176 -81 -120 -21 -188 36 -112 94 47 36 143
66 210 67 47 0 62 -4 85 -25z m-599 -228 c43 -40 28 -66 -73 -118 -146 -78
-255 -106 -306 -79 -27 15 -24 34 12 75 37 41 90 74 180 112 115 47 145 49
187 10z"/>
<path d="M20160 21213 c-26 -10 -70 -44 -70 -54 0 -12 72 -12 105 1 20 7 26
16 23 33 -3 22 -29 31 -58 20z"/>
<path d="M10040 21124 c-118 -32 -150 -77 -90 -128 17 -14 39 -26 49 -26 20 0
209 94 230 115 19 18 7 32 -37 45 -49 13 -85 12 -152 -6z"/>
<path d="M18925 20598 c-54 -15 -98 -20 -195 -19 -152 0 -222 -15 -348 -75
-96 -46 -135 -85 -130 -129 3 -17 11 -20 60 -21 50 0 72 -8 160 -54 81 -42
112 -53 148 -53 56 0 356 91 457 138 69 32 192 112 193 126 0 7 -91 69 -137
92 -42 22 -120 20 -208 -5z"/>
<path d="M10929 20501 c-46 -15 -73 -33 -127 -85 -68 -65 -86 -97 -68 -121 10
-15 23 -17 77 -12 35 2 97 12 137 21 82 19 123 12 230 -35 l54 -24 24 28 c50
58 17 125 -87 178 -61 30 -158 60 -194 58 -11 0 -32 -4 -46 -8z"/>
<path d="M20150 20113 c-54 -20 -40 -53 22 -53 57 0 67 39 13 53 -11 3 -27 3
-35 0z"/>
<path d="M23233 19763 c-7 -2 -13 -13 -13 -24 0 -22 71 -62 103 -57 28 4 35
49 12 72 -16 15 -74 21 -102 9z"/>
<path d="M20243 19390 c-40 -27 -88 -101 -103 -162 -10 -39 -9 -55 4 -94 9
-26 16 -71 16 -101 0 -60 2 -61 100 -65 54 -3 56 -4 88 -52 37 -55 66 -146 57
-176 -4 -12 -36 -34 -83 -56 -99 -47 -112 -59 -112 -102 0 -28 -8 -43 -42 -74
-28 -26 -38 -42 -31 -49 5 -5 44 -18 86 -28 118 -28 155 -62 104 -96 -13 -8
-66 -32 -118 -53 -52 -21 -107 -46 -124 -56 l-30 -17 45 5 c84 10 610 96 655
107 54 14 73 32 55 54 -20 24 -3 57 53 100 28 23 59 53 67 69 14 25 14 28 -4
41 -14 11 -34 13 -73 8 -48 -5 -57 -3 -79 18 -14 13 -57 85 -95 159 -102 201
-176 285 -287 326 -26 10 -51 21 -56 25 -4 4 29 46 74 92 l81 86 -48 7 c-83
12 -111 28 -115 66 -2 27 -8 33 -28 36 -14 1 -39 -7 -57 -18z"/>
<path d="M1595 19393 c-66 -16 -205 -66 -234 -84 -40 -24 -31 -46 13 -29 15 5
80 24 144 40 114 30 162 51 162 70 0 10 -49 12 -85 3z"/>
<path d="M3735 19329 c-30 -36 -30 -74 -1 -74 22 0 52 38 62 78 5 23 3 27 -14
27 -11 0 -32 -14 -47 -31z"/>
<path d="M3800 19094 c-58 -39 -64 -68 -21 -116 24 -27 31 -30 44 -19 22 17
49 93 45 122 -4 30 -34 36 -68 13z"/>
<path d="M19815 18965 c-5 -2 -22 -6 -37 -9 -14 -3 -48 -23 -75 -43 -26 -20
-77 -48 -113 -61 -104 -38 -119 -61 -75 -114 28 -34 27 -49 -12 -138 -34 -76
-42 -154 -18 -180 25 -28 47 -25 171 20 184 68 235 92 251 116 8 13 19 56 24
96 6 54 19 93 49 150 51 100 53 134 5 154 -30 12 -142 18 -170 9z"/>
<path d="M20171 18829 c-26 -25 -16 -43 20 -37 18 2 25 10 27 31 4 33 -15 36
-47 6z"/>
<path d="M39300 18665 c0 -29 81 -139 220 -300 164 -189 269 -340 380 -545 88
-164 121 -212 163 -243 54 -40 147 -62 162 -38 5 9 -46 76 -182 238 -79 94
-126 173 -121 206 3 24 15 26 81 12 30 -6 37 -4 37 8 0 24 -93 113 -220 211
-164 127 -267 223 -353 329 -42 50 -89 100 -105 110 -29 16 -62 23 -62 12z"/>
<path d="M13189 18263 c-35 -26 -160 -142 -278 -258 l-213 -210 118 -13 c66
-7 200 -14 299 -15 158 -1 191 1 272 22 51 12 103 31 115 40 20 17 21 21 10
60 -24 77 -64 110 -194 156 -62 22 -94 48 -108 89 -12 38 0 77 42 129 15 19
19 30 12 37 -8 8 -31 -4 -75 -37z"/>
<path d="M3755 18227 c-21 -18 -25 -28 -20 -49 10 -39 96 -130 175 -184 62
-42 78 -48 123 -49 66 0 69 12 26 105 -70 153 -227 244 -304 177z"/>
<path d="M13041 17701 c-13 -24 -15 -91 -2 -91 17 0 34 31 35 67 1 41 -17 54
-33 24z"/>
<path d="M40196 17362 c-3 -5 15 -51 39 -103 52 -109 56 -148 20 -201 -43 -64
-47 -85 -26 -131 21 -46 110 -161 126 -161 6 -1 11 28 13 64 2 46 7 69 19 78
24 17 84 15 188 -8 49 -11 97 -17 107 -14 11 3 21 19 25 35 6 29 54 79 77 79
6 0 21 7 33 15 45 32 4 61 -170 122 -141 49 -229 91 -322 155 -98 67 -122 80
-129 70z"/>
<path d="M21917 16940 c-27 -22 -36 -65 -21 -105 9 -22 57 -45 73 -35 17 10
30 82 22 123 -8 40 -36 46 -74 17z"/>
<path d="M21860 16633 c-29 -32 -32 -41 -28 -83 6 -58 50 -155 77 -169 30 -16
57 1 71 45 13 39 16 150 5 186 -21 68 -76 77 -125 21z"/>
<path d="M40440 16650 c-15 -29 3 -96 60 -219 27 -58 54 -126 60 -150 31 -117
-29 -203 -262 -376 -143 -107 -190 -127 -283 -126 -91 1 -116 -8 -214 -83 -41
-31 -92 -64 -113 -73 -21 -9 -38 -20 -38 -25 0 -4 14 -15 31 -24 44 -22 127
-19 249 10 211 52 289 32 375 -94 l49 -73 19 64 c27 97 48 139 76 153 14 7 63
16 108 19 137 10 236 57 291 137 34 50 30 118 -15 247 -33 96 -37 120 -38 213
-1 96 -4 111 -34 172 -42 88 -128 181 -202 219 -68 34 -104 37 -119 9z"/>
<path d="M21033 16490 c-28 -11 -56 -54 -51 -77 5 -24 53 -21 88 5 32 24 35
76 5 79 -11 1 -30 -2 -42 -7z"/>
<path d="M22528 16180 c-64 -11 -73 -18 -54 -39 23 -26 218 -121 251 -124 26
-2 33 4 53 43 33 65 27 91 -23 106 -58 16 -172 23 -227 14z"/>
<path d="M25487 15767 c-27 -28 -45 -36 -88 -42 -30 -4 -60 -12 -66 -17 -19
-15 -16 -42 6 -62 16 -14 25 -16 58 -7 87 24 178 104 157 139 -17 27 -31 24
-67 -11z"/>
<path d="M23980 15757 c0 -10 126 -65 190 -84 77 -23 204 -23 226 -1 48 48
-41 77 -258 85 -87 3 -158 3 -158 0z"/>
<path d="M40003 15485 c-55 -24 -71 -90 -32 -139 28 -36 45 -33 95 18 37 37
44 49 44 84 0 54 -38 67 -107 37z"/>
<path d="M39602 15438 c-29 -29 -13 -74 73 -193 30 -42 60 -95 66 -118 15 -52
30 -70 53 -61 47 18 65 140 32 217 -44 100 -183 196 -224 155z"/>
<path d="M11130 15362 c-27 -22 -19 -42 15 -42 24 0 42 30 30 50 -9 14 -20 12
-45 -8z"/>
<path d="M8822 14344 c-16 -11 -22 -25 -22 -55 0 -21 5 -39 10 -39 16 0 100
81 100 96 0 19 -60 18 -88 -2z"/>
<path d="M9023 14305 c2 -25 13 -55 23 -66 17 -19 19 -19 25 -2 7 20 -7 81
-23 101 -21 25 -31 12 -25 -33z"/>
<path d="M8799 14130 c-41 -24 -29 -103 23 -157 30 -31 57 -41 72 -26 3 4 -8
19 -25 35 -29 27 -30 31 -24 79 5 33 3 54 -5 64 -14 17 -19 18 -41 5z"/>
<path d="M38685 13968 c-42 -50 -105 -171 -105 -203 0 -32 55 -136 89 -169 27
-26 32 -27 47 -15 46 38 102 250 88 334 -17 104 -59 123 -119 53z"/>
<path d="M8160 13683 c-67 -7 -205 -45 -259 -71 -58 -29 -85 -60 -75 -86 8
-22 11 -21 117 18 126 47 163 56 230 56 118 0 251 -53 434 -176 129 -86 147
-106 138 -157 l-7 -35 44 -6 c23 -3 85 -7 136 -10 56 -4 105 -12 124 -22 36
-18 112 -13 213 15 88 24 82 41 -35 109 -194 113 -537 282 -640 316 -147 49
-280 64 -420 49z"/>
<path d="M9592 13650 c-39 -9 -57 -24 -48 -39 9 -14 111 -14 137 -1 29 16 23
37 -12 44 -35 7 -32 7 -77 -4z"/>
<path d="M9318 13520 c-20 -11 -39 -24 -42 -29 -17 -27 102 -23 125 5 16 20 4
44 -23 44 -13 -1 -40 -10 -60 -20z"/>
<path d="M9523 13130 l-23 -9 20 -52 c38 -97 16 -112 -175 -119 l-140 -5 35
-20 c31 -18 54 -20 195 -20 115 0 167 -4 184 -14 18 -10 45 -12 100 -7 149 13
391 72 408 99 21 34 -156 115 -314 142 -94 16 -255 19 -290 5z"/>
<path d="M37098 13124 c-64 -19 -108 -65 -108 -111 0 -43 24 -85 61 -107 36
-21 59 -15 98 29 45 52 114 173 107 190 -7 20 -93 19 -158 -1z"/>
<path d="M10652 12954 c-28 -19 -20 -34 19 -34 38 0 69 16 69 35 0 20 -59 20
-88 -1z"/>
<path d="M10390 12951 c-76 -16 -101 -49 -62 -84 37 -33 148 -11 176 35 22 36
-43 63 -114 49z"/>
<path d="M8643 12934 c-8 -22 8 -46 43 -63 36 -18 234 -29 234 -13 0 17 -62
60 -109 77 -60 21 -160 20 -168 -1z"/>
<path d="M38854 12885 c-20 -30 -33 -92 -34 -154 0 -24 -14 -85 -31 -135 -29
-82 -31 -95 -20 -134 6 -23 22 -59 35 -80 33 -52 184 -220 237 -263 77 -63
100 -71 184 -63 63 6 83 3 135 -16 57 -21 62 -22 78 -6 16 15 15 19 -7 61 -30
58 -75 80 -143 71 -40 -6 -59 -3 -93 14 -48 23 -151 127 -166 168 -11 28 -10
32 38 162 41 112 40 137 -15 247 -65 132 -157 191 -198 128z"/>
<path d="M11054 12796 c-8 -21 15 -58 34 -54 24 5 28 39 6 55 -23 17 -33 16
-40 -1z"/>
<path d="M11226 12803 c-3 -4 -6 -17 -6 -29 0 -27 29 -47 50 -34 12 7 12 13 1
34 -14 26 -35 39 -45 29z"/>
<path d="M16770 12712 c0 -11 9 -27 21 -38 17 -16 22 -16 29 -4 13 20 12 34
-2 48 -19 19 -48 15 -48 -6z"/>
<path d="M10900 12713 c0 -17 46 -53 68 -53 31 0 35 16 8 33 -30 20 -76 32
-76 20z"/>
<path d="M11240 12588 c-25 -27 -26 -58 -2 -58 25 0 52 31 52 58 0 28 -23 28
-50 0z"/>
<path d="M17136 12424 c-19 -19 -20 -26 -4 -42 30 -30 78 0 58 37 -13 25 -33
27 -54 5z"/>
<path d="M11356 12299 c-31 -24 -33 -35 -7 -42 25 -6 51 10 51 33 0 29 -15 32
-44 9z"/>
<path d="M11553 12054 c-8 -22 9 -48 36 -52 27 -4 29 28 3 51 -23 21 -31 21
-39 1z"/>
<path d="M38940 11999 c0 -48 108 -155 132 -131 19 19 -50 110 -104 138 -26
14 -28 13 -28 -7z"/>
<path d="M9822 11964 c4 -33 32 -54 49 -37 9 9 8 18 -5 37 -22 35 -48 34 -44
0z"/>
<path d="M10004 11976 c-9 -22 24 -76 46 -76 35 0 19 59 -20 80 -16 8 -22 8
-26 -4z"/>
<path d="M39540 11867 c0 -42 130 -192 177 -203 67 -17 43 64 -43 146 -66 62
-134 91 -134 57z"/>
<path d="M39182 11763 c-7 -3 -19 -18 -28 -35 -29 -57 23 -142 65 -104 10 9
28 38 41 66 19 41 21 52 10 65 -12 14 -61 19 -88 8z"/>
<path d="M39500 11647 c0 -17 49 -138 62 -154 18 -23 30 -2 24 41 -10 61 -44
126 -67 126 -10 0 -19 -6 -19 -13z"/>
<path d="M38701 11544 c-120 -124 -215 -248 -207 -269 16 -42 97 5 198 114 97
105 153 224 117 247 -7 4 -51 -33 -108 -92z"/>
<path d="M11063 11623 c-7 -2 -13 -18 -13 -35 0 -16 -9 -43 -21 -59 -24 -34
-18 -49 21 -49 63 0 110 45 110 105 0 34 -54 56 -97 38z"/>
<path d="M39306 11518 c-23 -36 -28 -89 -13 -132 7 -22 18 -41 24 -43 17 -6
73 78 73 108 0 27 -43 89 -61 89 -5 0 -15 -10 -23 -22z"/>
<path d="M39737 11399 c-22 -60 -117 -162 -173 -185 -30 -13 -56 -15 -119 -9
-71 6 -83 4 -106 -14 -27 -21 -66 -97 -56 -107 3 -4 42 -1 86 6 105 17 118 11
160 -76 19 -38 47 -98 64 -132 39 -82 63 -98 120 -84 23 6 55 14 70 17 l28 6
-25 44 c-62 105 4 163 101 89 19 -14 37 -23 41 -20 10 11 -18 152 -50 249 -32
98 -99 250 -115 260 -5 3 -17 -17 -26 -44z"/>
<path d="M32804 11335 c-14 -38 -16 -68 -11 -197 5 -163 24 -250 55 -267 39
-21 168 29 192 75 20 37 6 110 -39 198 -51 100 -147 236 -165 236 -8 0 -22
-20 -32 -45z"/>
<path d="M41097 11112 c-21 -23 -22 -62 -3 -62 17 0 56 46 56 66 0 20 -34 17
-53 -4z"/>
<path d="M46875 11099 c-4 -5 -4 -21 -1 -35 5 -17 13 -24 31 -24 29 0 32 16 9
48 -17 24 -29 28 -39 11z"/>
<path d="M38331 10801 c-106 -108 -124 -122 -211 -163 -113 -55 -134 -73 -188
-164 -49 -84 -82 -115 -192 -186 -88 -56 -138 -104 -166 -161 -37 -72 -59 -80
-124 -47 -22 11 -50 20 -63 20 -47 0 -97 -84 -97 -162 0 -63 92 -393 142 -511
26 -59 57 -77 200 -113 85 -22 129 -27 249 -28 140 -2 151 -4 232 -35 110 -43
144 -39 188 22 74 102 239 449 260 548 14 62 34 88 119 144 l70 46 -54 77
c-151 217 -153 313 -10 506 l66 89 -84 84 c-99 100 -167 153 -198 153 -16 0
-58 -36 -139 -119z"/>
<path d="M35194 10727 c-16 -43 65 -159 253 -359 70 -75 144 -161 163 -192 52
-84 180 -276 270 -406 44 -63 112 -178 151 -255 106 -208 217 -364 356 -501
89 -88 147 -124 200 -124 107 0 193 105 192 235 0 115 -44 191 -227 398 -157
176 -176 204 -191 276 -20 97 -77 161 -236 266 -65 43 -150 119 -310 276 -231
227 -297 279 -449 350 -98 46 -163 59 -172 36z"/>
<path d="M21824 10409 c-16 -17 -16 -22 -4 -29 30 -19 60 -2 60 32 0 25 -32
23 -56 -3z"/>
<path d="M40196 10199 c-46 -36 -69 -94 -61 -154 5 -40 1 -64 -14 -104 -28
-69 -27 -84 10 -120 76 -76 140 3 104 129 -9 30 -19 76 -22 102 -5 45 -3 51
36 101 22 30 41 57 41 60 0 16 -69 5 -94 -14z"/>
<path d="M47187 10073 c-13 -12 -7 -33 14 -54 17 -17 23 -19 30 -8 13 21 11
36 -7 53 -17 17 -27 20 -37 9z"/>
<path d="M39620 10032 c-64 -31 -87 -37 -156 -40 -47 -2 -116 3 -165 12 -106
20 -182 20 -217 2 -80 -42 -144 -151 -169 -289 -30 -166 -54 -244 -98 -332
-25 -49 -45 -96 -45 -103 0 -7 16 -43 35 -80 37 -71 44 -113 31 -197 -7 -43
-5 -54 14 -77 25 -33 53 -35 97 -8 48 29 56 52 43 113 -38 173 -40 186 -29
214 13 36 88 113 109 113 10 0 35 -37 68 -102 54 -108 101 -167 153 -188 39
-17 49 -4 49 65 0 45 -23 121 -73 250 -41 102 -11 163 117 238 89 52 28 59
-132 16 -129 -34 -188 -21 -240 56 -47 67 -15 140 83 190 52 27 68 30 144 29
73 -1 98 -6 165 -33 98 -41 155 -39 218 5 41 29 91 104 103 157 10 37 -10 35
-105 -11z"/>
<path d="M21609 9971 c-30 -24 -14 -47 25 -37 19 5 26 13 26 31 0 30 -19 32
-51 6z"/>
<path d="M46150 9745 c-20 -21 -21 -25 -7 -31 30 -11 52 0 55 29 4 35 -16 36
-48 2z"/>
<path d="M40855 9696 c-66 -16 -155 -63 -155 -80 0 -8 58 -44 129 -80 71 -37
136 -75 145 -85 16 -18 15 -21 -28 -64 -37 -36 -46 -52 -46 -80 0 -62 66 -117
141 -117 76 0 359 -116 531 -216 119 -70 171 -122 219 -219 52 -105 49 -120
-32 -175 -33 -23 -63 -48 -66 -57 -15 -40 68 -67 157 -51 66 11 102 -2 180
-67 109 -91 303 -151 371 -115 11 6 44 49 75 95 60 91 119 151 159 161 93 23
263 -77 367 -216 123 -164 214 -226 438 -300 146 -48 224 -62 214 -37 -3 9
-45 46 -92 84 -248 195 -401 369 -448 507 -15 44 -15 50 1 87 17 37 17 41 0
86 -57 151 -430 404 -830 564 -99 39 -265 109 -369 156 l-188 84 -107 -62
c-153 -90 -219 -136 -284 -201 -32 -32 -62 -58 -67 -58 -16 0 -98 102 -129
162 -17 34 -31 74 -31 90 0 40 -22 88 -60 131 -67 77 -113 94 -195 73z"/>
<path d="M43635 9361 c-6 -11 42 -49 91 -74 55 -28 131 -94 179 -156 48 -63
75 -77 75 -40 0 91 -307 331 -345 270z"/>
<path d="M40205 9326 c-16 -12 -18 -18 -9 -33 18 -29 64 -46 140 -51 57 -4 80
0 119 17 29 13 45 25 39 30 -10 11 -131 36 -214 46 -41 5 -60 3 -75 -9z"/>
<path d="M43828 9032 c-14 -9 -55 -39 -90 -66 -86 -67 -175 -107 -293 -131
l-99 -21 86 -47 c47 -26 99 -47 115 -47 31 0 99 43 210 133 73 59 112 110 120
161 7 42 -6 46 -49 18z"/>
<path d="M29090 8955 c-6 -8 -9 -23 -5 -35 10 -31 59 -24 63 9 6 37 -34 55
-58 26z"/>
<path d="M44157 8813 c27 -131 79 -208 127 -190 29 11 16 49 -45 130 -34 45
-66 92 -72 104 -20 44 -24 23 -10 -44z"/>
<path d="M36817 8756 c-48 -13 -97 -49 -97 -72 0 -32 93 -77 240 -116 54 -14
114 -21 215 -23 122 -2 154 -7 248 -34 162 -47 265 -68 492 -100 211 -30 255
-29 255 4 0 34 -161 125 -259 146 -28 6 -82 32 -132 65 -117 76 -136 80 -270
54 -168 -32 -203 -30 -301 19 -132 65 -279 87 -391 57z"/>
<path d="M44410 8659 c0 -17 117 -129 134 -129 31 0 15 34 -39 87 -50 49 -95
69 -95 42z"/>
<path d="M44700 8491 c0 -37 137 -167 157 -148 15 16 -79 127 -129 153 -26 13
-28 13 -28 -5z"/>
<path d="M44496 8442 c-13 -21 62 -132 90 -132 21 0 17 28 -11 76 -29 50 -66
76 -79 56z"/>
<path d="M38968 8430 c-25 -15 -22 -35 10 -71 23 -25 38 -33 78 -36 49 -5 189
18 221 36 14 8 14 10 -3 19 -70 37 -274 72 -306 52z"/>
<path d="M38428 8398 c-59 -21 -17 -78 57 -78 22 1 78 7 125 13 66 10 86 17
88 30 6 29 -56 47 -155 46 -48 0 -100 -5 -115 -11z"/>
<path d="M39683 8381 c-81 -28 -159 -93 -215 -180 -15 -25 -28 -51 -28 -58 0
-26 48 -12 140 42 196 114 297 158 385 167 26 3 22 6 -34 26 -79 27 -175 29
-248 3z"/>
<path d="M44990 8320 c1 -53 29 -142 48 -148 29 -9 0 142 -34 178 -12 12 -14
8 -14 -30z"/>
<path d="M38812 8218 c5 -15 91 -64 131 -74 51 -12 29 28 -32 59 -58 29 -106
36 -99 15z"/>
<path d="M44810 8221 c0 -17 52 -71 82 -87 35 -18 58 -12 58 14 0 25 -27 48
-79 67 -50 17 -61 18 -61 6z"/>
<path d="M47892 8204 c-29 -20 -28 -44 2 -44 28 0 51 24 42 45 -7 19 -16 19
-44 -1z"/>
<path d="M45040 8066 c0 -20 55 -76 74 -76 24 0 19 38 -9 65 -26 27 -65 33
-65 11z"/>
<path d="M42267 7911 c-50 -60 -124 -301 -147 -481 -15 -115 -36 -192 -70
-259 -64 -127 -215 -311 -254 -311 -61 1 -397 222 -529 349 -69 66 -100 121
-100 177 0 52 13 85 80 198 87 147 79 159 -139 222 -183 52 -242 48 -396 -30
-26 -13 -87 -38 -136 -55 -101 -36 -154 -74 -223 -160 -66 -83 -84 -124 -77
-168 4 -30 1 -44 -16 -66 -42 -53 -119 -31 -248 74 -104 85 -107 86 -194 58
-109 -35 -209 -107 -294 -213 -67 -85 -134 -146 -159 -146 -27 0 -49 -41 -52
-97 -4 -84 -4 -84 -134 -46 -24 7 -71 -46 -124 -139 -66 -114 -135 -199 -208
-254 -83 -63 -148 -91 -237 -104 -178 -25 -801 -275 -906 -363 -38 -32 -78
-113 -103 -208 -16 -60 -20 -106 -20 -239 1 -94 -7 -231 -17 -320 -25 -219
-24 -433 4 -586 12 -67 22 -139 22 -162 0 -104 -93 -308 -171 -374 -60 -51
-63 -77 -14 -124 47 -44 134 -75 212 -75 48 0 96 11 215 51 194 65 352 104
531 130 188 29 310 61 442 119 147 65 204 85 340 121 229 61 548 106 694 98
62 -4 88 -11 139 -38 108 -57 208 -172 287 -330 15 -30 36 -68 47 -83 l20 -28
46 43 c123 115 304 215 338 187 24 -20 -7 -77 -110 -203 -41 -51 -73 -112 -64
-122 11 -10 39 10 59 43 12 18 32 41 46 50 34 23 49 4 62 -77 6 -36 22 -98 36
-138 31 -89 31 -104 0 -170 -14 -30 -25 -64 -25 -76 0 -47 130 -143 239 -176
95 -30 173 -27 246 10 33 16 66 30 74 30 7 0 50 -36 95 -80 l82 -80 80 61
c130 100 226 139 345 139 127 0 159 22 338 238 58 69 112 124 142 142 34 21
83 72 162 172 126 158 164 196 237 233 188 95 479 512 555 795 26 99 89 495
81 516 -2 6 -45 65 -94 130 -113 150 -182 264 -293 482 -100 197 -190 337
-278 435 -33 37 -66 77 -72 89 -15 28 -13 79 5 158 21 87 20 186 -3 298 -24
114 -62 197 -130 281 -65 79 -102 152 -153 299 -41 120 -61 167 -77 176 -5 4
-20 -7 -34 -23z"/>
<path d="M28003 7682 c-46 -103 -94 -171 -192 -270 -145 -146 -263 -227 -406
-277 -29 -10 -66 -34 -86 -56 -69 -71 -83 -163 -65 -440 l9 -137 -31 -67 c-18
-37 -54 -104 -81 -149 -88 -146 -100 -197 -81 -347 18 -146 39 -226 67 -259
30 -36 141 -100 173 -100 33 0 168 39 211 61 57 29 115 102 148 188 16 42 52
161 81 265 49 182 122 409 283 881 134 390 138 480 33 709 l-31 70 -32 -72z"/>
<path d="M27250 7696 c0 -8 9 -24 19 -37 24 -30 47 -14 37 25 -5 19 -13 26
-31 26 -15 0 -25 -6 -25 -14z"/>
<path d="M49055 7549 c-11 -17 4 -58 26 -69 16 -9 25 -8 42 4 62 43 71 59 41
70 -26 10 -102 7 -109 -5z"/>
<path d="M45876 7261 c-4 -5 3 -38 14 -73 37 -110 97 -195 122 -170 8 8 -2 38
-40 114 -50 103 -84 149 -96 129z"/>
<path d="M46067 7183 c-10 -10 -8 -71 2 -78 13 -8 26 64 14 76 -5 5 -12 6 -16
2z"/>
<path d="M47640 7041 c-65 -19 -11 -77 64 -69 51 6 117 46 95 58 -22 12 -131
20 -159 11z"/>
<path d="M47407 6903 c-4 -3 -7 -22 -7 -42 0 -48 33 -101 62 -101 29 0 128 67
128 87 0 32 -159 81 -183 56z"/>
<path d="M45217 6633 c-4 -3 -7 -29 -7 -56 0 -89 69 -194 249 -380 107 -110
162 -153 181 -142 24 15 4 50 -90 155 -117 129 -156 181 -233 305 -57 93 -89
130 -100 118z"/>
<path d="M29204 6459 c-16 -17 -16 -22 -4 -29 8 -6 20 -10 27 -10 15 0 44 40
37 52 -9 15 -41 8 -60 -13z"/>
<path d="M48384 6437 c-25 -22 -27 -27 -16 -51 15 -34 28 -33 52 7 35 57 12
85 -36 44z"/>
<path d="M28946 6334 c-19 -19 -20 -26 -4 -42 30 -30 78 0 58 37 -13 25 -33
27 -54 5z"/>
<path d="M45693 3964 c-3 -9 -1 -64 6 -123 14 -132 14 -264 0 -314 -15 -54
-61 -102 -132 -136 -82 -38 -143 -84 -167 -124 -23 -38 -25 -101 -5 -137 25
-43 17 -61 -55 -131 -72 -71 -81 -88 -55 -109 30 -25 118 20 275 141 209 161
270 204 380 269 l115 68 19 61 c11 34 17 64 14 67 -3 3 -24 -4 -47 -15 -64
-33 -92 -28 -146 27 -98 98 -131 169 -120 254 16 116 3 167 -51 203 -22 14
-25 14 -31 -1z"/>
<path d="M44945 2967 c-22 -13 -94 -63 -160 -111 -200 -147 -361 -237 -628
-353 -416 -179 -624 -315 -587 -382 32 -62 219 -68 370 -12 134 50 244 117
414 256 71 58 152 105 183 105 36 1 105 41 161 93 68 64 120 100 227 156 44
23 89 49 100 59 69 58 73 123 12 190 -26 28 -42 28 -92 -1z"/>
<path d="M41053 2968 c-6 -7 -13 -52 -16 -99 -3 -49 -15 -111 -27 -145 -36
-97 -36 -118 -4 -143 15 -12 37 -24 49 -27 27 -7 100 28 211 102 124 81 258
233 231 260 -3 3 -66 10 -140 15 -75 5 -170 18 -213 29 -91 24 -79 23 -91 8z"/>
<path d="M12648 1324 c-5 -4 -8 -20 -8 -35 0 -19 -6 -30 -21 -34 -16 -6 -18
-9 -8 -22 16 -18 63 -43 84 -43 9 0 37 23 64 50 27 28 56 50 66 50 16 0 16 -1
1 -22 -63 -87 -68 -111 -24 -116 35 -4 99 29 154 80 81 74 56 90 -151 96 -82
2 -153 1 -157 -4z"/>
<path d="M11667 1043 c-56 -60 -73 -152 -38 -210 34 -56 181 -126 297 -142 41
-6 110 -6 182 0 64 5 158 12 207 15 l90 6 -60 22 c-76 28 -228 108 -353 188
-117 74 -256 148 -280 148 -10 0 -30 -12 -45 -27z"/>
</g>
</svg>
